<svg width="157" height="291" viewBox="0 0 157 291" fill="none" xmlns="http://www.w3.org/2000/svg">
<path d="M134.465 106.689C134.887 104.699 133.306 100.119 129.567 98.9903C125.955 97.8993 122.779 100.061 121.813 101.196C121.813 101.196 114.088 113.709 112.35 141.606C110.959 163.923 122.257 181.76 128.237 186.464C128.237 186.464 128.296 190.69 129.307 193.071C132.328 200.188 140.547 203.509 147.664 200.488C154.782 197.467 158.102 189.248 155.081 182.131C152.06 175.013 143.841 171.693 136.724 174.714C130.25 167.141 125.883 158.131 126.326 143.821C126.681 132.372 131.9 114.296 134.465 106.689Z" fill="#52B089"/>
<path d="M91 290.852C105.5 266.352 107 233.352 97 206.352C94.9976 200.946 97.5 197.638 102 196.352C106.5 195.067 110.059 197.352 111.5 202.352C120 231.852 119.5 259.352 113 277.352C116.5 278.852 125 281.852 127.5 290.852H91Z" fill="#52B089"/>
<path d="M143 176.5V50.5C143 27.1009 117.309 0 85 0C52.6913 0 26 27.1009 26 50.5V176.5C26 199.899 52.6913 229 85 229C117.309 229 143 199.899 143 176.5Z" fill="#70EBB7"/>
<path d="M73.601 19.063C70.1614 17.4292 62.7628 14.6421 51.4632 22.2125C42.2867 28.3605 33.6091 44.0409 38.8931 49.7487C44.1772 55.4565 56.3416 51.4221 63.1064 44.6777C75.0763 32.744 76.3291 26.1733 73.601 19.063Z" fill="#97F2D3"/>
<path d="M55.7911 109.97C56.9432 108.293 57.2344 103.457 54.2127 100.984C51.2927 98.5932 47.5317 99.3751 46.2042 100.053C46.2042 100.053 34.2789 108.658 21.9975 133.766C12.1724 153.852 15.7847 174.655 19.5094 181.289C19.5094 181.289 17.9464 185.216 17.9689 187.803C18.0364 195.535 24.3589 201.748 32.0906 201.68C39.8223 201.613 46.0353 195.291 45.9679 187.559C45.9004 179.827 39.5779 173.614 31.8462 173.682C28.7634 164.208 28.1762 154.213 34.0625 141.161C38.7716 130.719 50.5104 116.016 55.7911 109.97Z" fill="#97F2D3"/>
<path d="M102.5 71.9661C102.5 85.5 99.366 85.5 95.5 85.5C91.634 85.5 89 85.5 89 71.9661C89 59 91.634 59 95.5 59C99.366 59 102.5 59 102.5 71.9661Z" fill="black"/>
<path d="M127.5 71.9661C127.5 85.5 124.366 85.5 120.5 85.5C116.634 85.5 114 85.5 114 71.9661C114 59 116.634 59 120.5 59C124.366 59 127.5 59 127.5 71.9661Z" fill="black"/>
<path d="M47 290.852C61.5 266.352 63 233.352 53 206.352C50.9976 200.946 53.5 197.638 58 196.352C62.5 195.067 66.0593 197.352 67.5 202.352C76 231.852 75.5 259.352 69 277.352C72.5 278.852 81 281.852 83.5 290.852H47Z" fill="#70EBB7"/>
</svg>
