<svg id="walk2" style="display:none" width="278" height="331" viewBox="0 0 278 331" fill="none" xmlns="http://www.w3.org/2000/svg">
    <path id="left-arm" d="M129.939 146.86C131.636 145.739 133.724 141.367 131.854 137.939C130.047 134.626 126.268 133.937 124.783 134.067C124.783 134.067 110.498 137.557 89.6781 156.206C73.0226 171.126 68.5494 191.76 69.5068 199.308C69.5068 199.308 66.5822 202.36 65.6307 204.765C62.7866 211.955 66.3096 220.089 73.4995 222.933C80.6894 225.777 88.8236 222.254 91.6677 215.064C94.5117 207.874 90.9887 199.74 83.7988 196.896C84.5035 186.959 87.7169 177.476 98.0781 167.594C106.367 159.689 122.772 150.477 129.939 146.86Z" fill="#52B089"/>
    <path id="body" d="M211.106 197.735L211.36 71.7357C211.407 48.3367 185.77 21.1841 153.461 21.1189C121.153 21.0538 94.407 48.1008 94.3598 71.4999L94.1058 197.5C94.0587 220.899 120.691 250.053 153 250.118C185.308 250.184 211.058 221.135 211.106 197.735Z" fill="#70EBB7"/>
    <path id="shiny" d="M141.845 41.33C138.283 39.9853 130.68 37.8173 120.042 46.2929C111.404 53.1761 104.047 69.5182 109.784 74.7712C115.52 80.0242 127.311 75.0012 133.497 67.7224C144.443 54.8429 145.15 48.1914 141.845 41.33Z" fill="#97F2D3"/>
    <path id="right-arm" d="M157.608 143.168C156.825 141.29 152.922 138.421 149.204 139.616C145.612 140.77 144.227 144.354 144.076 145.837C144.076 145.837 144.829 160.523 159.249 184.466C170.786 203.621 190.218 211.88 197.811 212.353C197.811 212.353 200.261 215.797 202.446 217.182C208.976 221.322 217.626 219.385 221.766 212.855C225.906 206.325 223.969 197.675 217.439 193.535C210.909 189.394 202.259 191.332 198.119 197.862C188.489 195.309 179.776 190.376 172.009 178.348C165.796 168.725 159.82 150.885 157.608 143.168Z" fill="#97F2D3"/>
    <path id="right-eye" d="M169.499 96.447C169.068 109.974 165.935 109.874 162.071 109.751C158.207 109.628 155.575 109.544 156.006 96.0172C156.418 83.0577 159.051 83.1415 162.915 83.2646C166.779 83.3877 169.912 83.4875 169.499 96.447Z" fill="black"/>
    <path id="left-eye" d="M194.486 97.243C194.055 110.77 190.923 110.67 187.059 110.547C183.195 110.424 180.562 110.34 180.993 96.8132C181.406 83.8537 184.038 83.9375 187.902 84.0606C191.766 84.1837 194.899 84.2835 194.486 97.243Z" fill="black"/>
    <path id="right-leg" d="M73 289.973C98.6429 277.606 118.17 250.961 124.799 222.943C126.127 217.332 130.042 215.964 134.501 217.386C138.96 218.808 140.657 222.683 139.087 227.644C129.825 256.913 114.176 279.532 98.7945 290.919C100.878 294.106 106.293 301.312 103.389 310.19L73 289.973Z" fill="#70EBB7"/>
</svg>