<svg id="basketball" viewBox="0 0 92 92" fill="none" xmlns="http://www.w3.org/2000/svg">
	<path d="M46 85.8667C68.0177 85.8667 85.8666 68.0178 85.8666 46C85.8666 23.9823 68.0177 6.13336 46 6.13336C23.9822 6.13336 6.1333 23.9823 6.1333 46C6.1333 68.0178 23.9822 85.8667 46 85.8667Z" fill="#FF8A14"/>
	<path d="M80.1166 25.4916C81.4583 29.1333 82.225 33.1583 82.225 37.375C82.225 57.3083 66.125 73.6 46 73.6C25.875 73.6 9.77497 57.3083 9.77497 37.375C9.77497 33.1583 10.5416 29.325 11.8833 25.4916C8.24163 31.4333 6.1333 38.525 6.1333 46C6.1333 68.0416 23.9583 85.8667 46 85.8667C68.0416 85.8667 85.8666 68.0416 85.8666 46C85.8666 38.525 83.7583 31.4333 80.1166 25.4916Z" fill="#EB6D00"/>
	<path d="M46 85.8667C68.0177 85.8667 85.8666 68.0178 85.8666 46C85.8666 23.9823 68.0177 6.13336 46 6.13336C23.9822 6.13336 6.1333 23.9823 6.1333 46C6.1333 68.0178 23.9822 85.8667 46 85.8667Z" stroke="#45413C" stroke-miterlimit="10" stroke-linecap="round" stroke-linejoin="round"/>
	<path d="M85.8666 43.3167C78.9666 32.775 53.2833 28.9417 24.3416 34.8833C16.2916 36.6083 9.19997 41.2083 6.1333 45.2333" stroke="#45413C" stroke-miterlimit="10" stroke-linecap="round" stroke-linejoin="round"/>
	<path d="M34.5 7.85828C29.1333 16.6749 26.45 30.0916 27.9833 45.0416C29.9 64.7833 38.525 80.8833 48.875 85.8666" stroke="#45413C" stroke-miterlimit="10" stroke-linecap="round" stroke-linejoin="round"/>
	<path d="M9.3916 61.7167C11.3083 54.4333 16.2916 46.9583 27.9833 44.85C47.9166 41.4 61.3333 60.7583 77.2416 70.725" stroke="#45413C" stroke-miterlimit="10" stroke-linecap="round" stroke-linejoin="round"/>
	<path d="M59.4167 8.43341C50.2167 15.7167 39.675 23.3834 28.75 25.6834C20.125 27.4084 16.675 23.9584 15.3334 20.5084" stroke="#45413C" stroke-miterlimit="10" stroke-linecap="round" stroke-linejoin="round"/>
</svg>