<svg id="walk" style="display: none;" width="278" height="331" viewBox="0 0 278 331" fill="none" xmlns="http://www.w3.org/2000/svg">
    <path id="left-arm" d="M175.72 141.126C174.784 139.32 170.656 136.783 167.05 138.282C163.565 139.731 162.482 143.416 162.455 144.907C162.455 144.907 164.422 159.48 180.776 182.147C193.86 200.28 213.909 206.9 221.516 206.743C221.516 206.743 224.242 209.972 226.534 211.172C233.385 214.757 241.845 212.11 245.43 205.259C249.015 198.408 246.367 189.949 239.517 186.364C232.666 182.778 224.206 185.426 220.621 192.276C210.813 190.53 201.721 186.336 192.985 174.992C185.996 165.917 178.563 148.634 175.72 141.126Z" fill="#52B089"/>
    <path id="body" d="M195 196.5V70.5C195 47.1009 169.309 20 137 20C104.691 20 78 47.1009 78 70.5V196.5C78 219.899 104.691 249 137 249C169.309 249 195 219.899 195 196.5Z" fill="#70EBB7"/>
    <path id="shiny" d="M125.601 39.063C122.161 37.4292 114.763 34.6421 103.463 42.2125C94.2867 48.3605 85.6091 64.0409 90.8931 69.7487C96.1772 75.4565 108.342 71.4221 115.106 64.6777C127.076 52.744 128.329 46.1733 125.601 39.063Z" fill="#97F2D3"/>
    <path id="right-arm" d="M102.343 154.733C104.029 153.594 106.068 149.199 104.161 145.792C102.317 142.499 98.5307 141.851 97.0472 141.997C97.0472 141.997 82.8012 145.644 62.1885 164.522C45.6983 179.624 41.4527 200.307 42.4932 207.844C42.4932 207.844 39.6024 210.927 38.6774 213.343C35.9127 220.564 39.5251 228.659 46.7459 231.423C53.9667 234.188 62.0616 230.576 64.8263 223.355C67.591 216.134 63.9785 208.039 56.7577 205.274C57.353 195.33 60.4617 185.812 70.7134 175.817C78.9147 167.821 95.2173 158.429 102.343 154.733Z" fill="#97F2D3"/>
    <path id="right-eye" d="M154.5 91.9661C154.5 105.5 151.366 105.5 147.5 105.5C143.634 105.5 141 105.5 141 91.9661C141 79 143.634 79 147.5 79C151.366 79 154.5 79 154.5 91.9661Z" fill="black"/>
    <path id="left-eye" d="M179.5 91.9661C179.5 105.5 176.366 105.5 172.5 105.5C168.634 105.5 166 105.5 166 91.9661C166 79 168.634 79 172.5 79C176.366 79 179.5 79 179.5 91.9661Z" fill="black"/>
    <path id="right-leg" d="M131.432 309.393C145.561 284.677 146.562 251.658 136.156 224.812C134.072 219.436 136.524 216.091 141.004 214.737C145.484 213.384 149.078 215.616 150.594 220.593C159.538 249.961 159.453 277.466 153.226 295.562C156.748 297.009 165.293 299.88 167.928 308.842L131.432 309.393Z" fill="#70EBB7"/>
</svg>